<svg xmlns="http://www.w3.org/2000/svg" width="300" height="450" viewBox="0 0 300 450">
  <rect width="300" height="450" fill="#1a1f35"/>
  <rect x="1" y="1" width="298" height="448" fill="none" stroke="#e8b84b" stroke-width="1.5" stroke-opacity="0.3"/>
  <!-- Film strip top -->
  <rect x="0" y="0" width="300" height="32" fill="#111827"/>
  <rect x="10" y="7" width="18" height="18" rx="3" fill="#e8b84b" fill-opacity="0.15"/>
  <rect x="36" y="7" width="18" height="18" rx="3" fill="#e8b84b" fill-opacity="0.15"/>
  <rect x="62" y="7" width="18" height="18" rx="3" fill="#e8b84b" fill-opacity="0.15"/>
  <rect x="88" y="7" width="18" height="18" rx="3" fill="#e8b84b" fill-opacity="0.15"/>
  <rect x="114" y="7" width="18" height="18" rx="3" fill="#e8b84b" fill-opacity="0.15"/>
  <rect x="140" y="7" width="18" height="18" rx="3" fill="#e8b84b" fill-opacity="0.15"/>
  <rect x="166" y="7" width="18" height="18" rx="3" fill="#e8b84b" fill-opacity="0.15"/>
  <rect x="192" y="7" width="18" height="18" rx="3" fill="#e8b84b" fill-opacity="0.15"/>
  <rect x="218" y="7" width="18" height="18" rx="3" fill="#e8b84b" fill-opacity="0.15"/>
  <rect x="244" y="7" width="18" height="18" rx="3" fill="#e8b84b" fill-opacity="0.15"/>
  <rect x="270" y="7" width="18" height="18" rx="3" fill="#e8b84b" fill-opacity="0.15"/>
  <!-- Film strip bottom -->
  <rect x="0" y="418" width="300" height="32" fill="#111827"/>
  <rect x="10" y="425" width="18" height="18" rx="3" fill="#e8b84b" fill-opacity="0.15"/>
  <rect x="36" y="425" width="18" height="18" rx="3" fill="#e8b84b" fill-opacity="0.15"/>
  <rect x="62" y="425" width="18" height="18" rx="3" fill="#e8b84b" fill-opacity="0.15"/>
  <rect x="88" y="425" width="18" height="18" rx="3" fill="#e8b84b" fill-opacity="0.15"/>
  <rect x="114" y="425" width="18" height="18" rx="3" fill="#e8b84b" fill-opacity="0.15"/>
  <rect x="140" y="425" width="18" height="18" rx="3" fill="#e8b84b" fill-opacity="0.15"/>
  <rect x="166" y="425" width="18" height="18" rx="3" fill="#e8b84b" fill-opacity="0.15"/>
  <rect x="192" y="425" width="18" height="18" rx="3" fill="#e8b84b" fill-opacity="0.15"/>
  <rect x="218" y="425" width="18" height="18" rx="3" fill="#e8b84b" fill-opacity="0.15"/>
  <rect x="244" y="425" width="18" height="18" rx="3" fill="#e8b84b" fill-opacity="0.15"/>
  <rect x="270" y="425" width="18" height="18" rx="3" fill="#e8b84b" fill-opacity="0.15"/>
  <!-- Camera icon -->
  <g transform="translate(150,200)" fill="#e8b84b" fill-opacity="0.35">
    <path d="M-36-22 h72 a8 8 0 0 1 8 8 v40 a8 8 0 0 1-8 8 h-72 a8 8 0 0 1-8-8 v-40 a8 8 0 0 1 8-8z"/>
    <circle cx="0" cy="6" r="16" fill="#1a1f35"/>
    <circle cx="0" cy="6" r="11" fill="#e8b84b" fill-opacity="0.35"/>
    <rect x="-12" y="-30" width="24" height="10" rx="4"/>
    <polygon points="44,-14 60,-22 60,34 44,26"/>
  </g>
  <!-- Text -->
  <text x="150" y="310" text-anchor="middle" font-family="sans-serif" font-size="13"
        fill="#e8b84b" fill-opacity="0.5" letter-spacing="2">KEIN COVER</text>
</svg>
